<?xml version="1.0" standalone="no"?>
<!DOCTYPE svg PUBLIC "-//W3C//DTD SVG 20010904//EN"
 "http://www.w3.org/TR/2001/REC-SVG-20010904/DTD/svg10.dtd">
<svg version="1.0" xmlns="http://www.w3.org/2000/svg"
 width="500.000000pt" height="500.000000pt" viewBox="0 0 500.000000 500.000000"
 preserveAspectRatio="xMidYMid meet">

<g transform="translate(0.000000,500.000000) scale(0.100000,-0.100000)"
fill="#000000" stroke="none">
<path d="M410 4971 c-101 -26 -159 -60 -238 -137 -80 -80 -122 -156 -141 -259
-7 -39 -11 -314 -11 -829 0 -652 3 -781 15 -835 45 -188 196 -337 382 -376
100 -21 1566 -21 1666 0 188 40 342 194 382 382 12 56 15 207 15 834 0 511 -4
785 -11 824 -19 103 -61 179 -141 259 -81 79 -147 116 -252 140 -58 14 -171
16 -834 15 -687 -1 -774 -3 -832 -18z m870 -966 l5 -180 174 -2 c95 -1 178 -6
183 -11 5 -5 8 -47 6 -93 l-3 -84 -182 -3 -183 -2 -2 -183 -3 -182 -95 0 -95
0 -3 183 -2 182 -181 0 -180 0 3 96 3 95 175 2 175 2 3 170 c1 94 4 176 7 183
3 9 29 12 97 10 l93 -3 5 -180z"/>
<path d="M2910 4971 c-101 -26 -159 -60 -238 -137 -80 -80 -122 -156 -141
-259 -7 -39 -11 -314 -11 -829 0 -652 3 -781 15 -835 45 -188 196 -337 382
-376 100 -21 1566 -21 1666 0 188 40 342 194 382 382 12 56 15 207 15 834 0
511 -4 785 -11 824 -19 103 -61 179 -141 259 -81 79 -147 116 -252 140 -58 14
-171 16 -834 15 -687 -1 -774 -3 -832 -18z m1355 -1243 l0 -93 -460 0 -460 0
-3 84 c-2 46 -1 89 1 95 3 8 141 10 463 9 l459 -2 0 -93z"/>
<path d="M410 2461 c-101 -26 -159 -60 -238 -137 -80 -80 -122 -156 -141 -259
-7 -39 -11 -314 -11 -829 0 -652 3 -781 15 -835 45 -188 196 -337 382 -376
100 -21 1566 -21 1666 0 188 40 342 194 382 382 12 56 15 207 15 834 0 511 -4
785 -11 824 -19 103 -61 179 -141 259 -81 79 -147 116 -252 140 -58 14 -171
16 -834 15 -687 -1 -774 -3 -832 -18z m640 -996 l125 -125 127 127 128 128 70
-70 70 -70 -127 -127 -128 -128 130 -130 130 -130 -65 -65 c-35 -36 -71 -65
-80 -65 -8 0 -70 55 -138 123 l-122 122 -122 -122 c-67 -68 -126 -123 -132
-123 -7 0 -41 29 -76 65 l-65 65 128 128 127 127 -127 127 -128 128 70 70 c38
38 72 70 75 70 3 0 61 -56 130 -125z"/>
<path d="M2910 2461 c-101 -26 -159 -60 -238 -137 -80 -80 -122 -156 -141
-259 -7 -39 -11 -314 -11 -829 0 -652 3 -781 15 -835 45 -188 196 -337 382
-376 100 -21 1566 -21 1666 0 188 40 342 194 382 382 12 56 15 207 15 834 0
511 -4 785 -11 824 -19 103 -61 179 -141 259 -81 79 -147 116 -252 140 -58 14
-171 16 -834 15 -687 -1 -774 -3 -832 -18z m1370 -1051 l0 -110 -462 2 -463 3
-3 94 c-1 52 -1 100 2 108 4 10 93 13 466 13 l460 0 0 -110z m0 -420 l0 -100
-465 0 -465 0 0 100 0 100 465 0 465 0 0 -100z"/>
</g>
</svg>
