<?xml version="1.0" encoding="UTF-8"?>
<!DOCTYPE svg PUBLIC "-//W3C//DTD SVG 1.1//EN" "http://www.w3.org/Graphics/SVG/1.1/DTD/svg11.dtd" [
  <!ENTITY fill_color "#FFFFFF">
  <!ENTITY stroke_color "#000000">
]>

<svg xmlns="http://www.w3.org/2000/svg" xmlns:v="https://svgstorm.com"
viewBox = "0 0 512 512"
width="512"
height="512">
<g fill="None" fill-opacity="0.0" stroke="&stroke_color;" stroke-opacity="0.00" stroke-width="0.3"><path d="
M 0.00 512.00 
L 512.00 512.00
L 512.00 0.00
L 0.00 0.00
L 0.00 512.00
M 233.00 10.00 
C 259.64 17.99 250.62 50.36 252.00 72.00 C 251.48 125.66 253.04 179.95 251.22 233.22 C 243.96 260.57 210.31 250.04 189.00 252.00 C 134.80 251.78 80.40 252.44 26.33 251.67 C -1.03 244.53 8.58 211.41 7.00 190.00 C 7.52 136.34 5.96 82.05 7.78 28.78 C 15.04 1.43 48.69 11.96 70.00 10.00 C 124.33 10.00 178.67 10.00 233.00 10.00
M 486.00 10.00 
C 512.64 17.99 503.62 50.36 505.00 72.00 C 504.48 125.66 506.04 179.95 504.22 233.22 C 496.96 260.57 463.31 250.04 442.00 252.00 C 387.80 251.78 333.40 252.44 279.33 251.67 C 251.97 244.53 261.58 211.41 260.00 190.00 C 260.52 136.34 258.96 82.05 260.78 28.78 C 268.04 1.43 301.69 11.96 323.00 10.00 C 377.33 10.00 431.67 10.00 486.00 10.00
M 233.00 260.00 
C 259.64 267.99 250.62 300.36 252.00 322.00 C 251.48 375.66 253.04 429.95 251.22 483.22 C 243.96 510.57 210.31 500.04 189.00 502.00 C 134.80 501.78 80.40 502.44 26.33 501.67 C -1.03 494.53 8.58 461.41 7.00 440.00 C 7.52 386.34 5.96 332.05 7.78 278.78 C 15.04 251.43 48.69 261.96 70.00 260.00 C 124.33 260.00 178.67 260.00 233.00 260.00
M 486.00 260.00 
C 512.64 267.99 503.62 300.36 505.00 322.00 C 504.48 375.66 506.04 429.95 504.22 483.22 C 496.96 510.57 463.31 500.04 442.00 502.00 C 387.80 501.78 333.40 502.44 279.33 501.67 C 251.97 494.53 261.58 461.41 260.00 440.00 C 260.52 386.34 258.96 332.05 260.78 278.78 C 268.04 251.43 301.69 261.96 323.00 260.00 C 377.33 260.00 431.67 260.00 486.00 260.00 Z"/>
</g>
<g fill="None" fill-opacity="0.0" stroke="&stroke_color;" stroke-opacity="1.00" stroke-width="0.3"><path d="
M 233.00 10.00 
C 178.67 10.00 124.33 10.00 70.00 10.00 C 48.69 11.96 15.04 1.43 7.78 28.78 C 5.96 82.05 7.52 136.34 7.00 190.00 C 8.58 211.41 -1.03 244.53 26.33 251.67 C 80.40 252.44 134.80 251.78 189.00 252.00 C 210.31 250.04 243.96 260.57 251.22 233.22 C 253.04 179.95 251.48 125.66 252.00 72.00 C 250.62 50.36 259.64 17.99 233.00 10.00
M 147.00 31.00 
C 147.00 57.00 147.00 83.00 147.00 109.00
C 171.33 109.00 195.67 109.00 220.00 109.00
C 220.00 123.67 220.00 138.33 220.00 153.00
C 195.67 153.00 171.33 153.00 147.00 153.00
C 147.00 166.33 147.00 179.67 147.00 193.00 C 145.64 205.27 149.74 220.48 144.92 230.92 C 131.61 231.11 118.30 230.95 105.00 231.00
C 105.00 205.00 105.00 179.00 105.00 153.00
C 80.67 153.00 56.33 153.00 32.00 153.00
C 32.00 138.33 32.00 123.67 32.00 109.00
C 56.33 109.00 80.67 109.00 105.00 109.00
C 105.00 83.00 105.00 57.00 105.00 31.00
C 119.00 31.00 133.00 31.00 147.00 31.00 Z"/>
</g>
<g fill="None" fill-opacity="0.0" stroke="&stroke_color;" stroke-opacity="1.00" stroke-width="0.3"><path d="
M 486.00 10.00 
C 431.67 10.00 377.33 10.00 323.00 10.00 C 301.69 11.96 268.04 1.43 260.78 28.78 C 258.96 82.05 260.52 136.34 260.00 190.00 C 261.58 211.41 251.97 244.53 279.33 251.67 C 333.40 252.44 387.80 251.78 442.00 252.00 C 463.31 250.04 496.96 260.57 504.22 233.22 C 506.04 179.95 504.48 125.66 505.00 72.00 C 503.62 50.36 512.64 17.99 486.00 10.00
M 466.00 111.00 
C 466.00 127.33 466.00 143.67 466.00 160.00
C 417.00 160.00 368.00 160.00 319.00 160.00 C 308.69 158.94 288.92 165.39 294.00 148.00 C 294.00 135.67 294.00 123.33 294.00 111.00
C 351.33 111.00 408.67 111.00 466.00 111.00 Z"/>
</g>
<g fill="None" fill-opacity="0.0" stroke="&fill_color;" stroke-opacity="1.00" stroke-width="0.3"><path d="
M 147.00 31.00 
C 133.00 31.00 119.00 31.00 105.00 31.00
C 105.00 57.00 105.00 83.00 105.00 109.00
C 80.67 109.00 56.33 109.00 32.00 109.00
C 32.00 123.67 32.00 138.33 32.00 153.00
C 56.33 153.00 80.67 153.00 105.00 153.00
C 105.00 179.00 105.00 205.00 105.00 231.00
C 118.30 230.95 131.61 231.11 144.92 230.92 C 149.74 220.48 145.64 205.27 147.00 193.00 C 147.00 179.67 147.00 166.33 147.00 153.00
C 171.33 153.00 195.67 153.00 220.00 153.00
C 220.00 138.33 220.00 123.67 220.00 109.00
C 195.67 109.00 171.33 109.00 147.00 109.00
C 147.00 83.00 147.00 57.00 147.00 31.00 Z"/>
</g>
<g fill="None" fill-opacity="0.0" stroke="&fill_color;" stroke-opacity="1.00" stroke-width="0.3"><path d="
M 466.00 111.00 
C 408.67 111.00 351.33 111.00 294.00 111.00
C 294.00 123.33 294.00 135.67 294.00 148.00 C 288.92 165.39 308.69 158.94 319.00 160.00 C 368.00 160.00 417.00 160.00 466.00 160.00
C 466.00 143.67 466.00 127.33 466.00 111.00 Z"/>
</g>
<g fill="None" fill-opacity="0.0" stroke="&stroke_color;" stroke-opacity="1.00" stroke-width="0.3"><path d="
M 233.00 260.00 
C 178.67 260.00 124.33 260.00 70.00 260.00 C 48.69 261.96 15.04 251.43 7.78 278.78 C 5.96 332.05 7.52 386.34 7.00 440.00 C 8.58 461.41 -1.03 494.53 26.33 501.67 C 80.40 502.44 134.80 501.78 189.00 502.00 C 210.31 500.04 243.96 510.57 251.22 483.22 C 253.04 429.95 251.48 375.66 252.00 322.00 C 250.62 300.36 259.64 267.99 233.00 260.00
M 123.00 351.00 
C 129.92 342.17 134.69 331.39 140.77 321.77 C 147.99 313.61 149.62 296.98 161.00 295.00 C 176.67 295.00 192.33 295.00 208.00 295.00
C 196.77 315.15 183.56 334.56 171.25 354.25 C 167.04 364.62 155.16 374.35 155.26 384.74 C 173.55 414.65 192.73 444.05 211.00 474.00
C 193.33 474.00 175.67 474.00 158.00 474.00
C 147.93 453.17 134.24 433.74 124.00 413.00
C 109.97 431.95 100.91 456.51 85.97 473.97 C 69.32 474.04 52.66 473.98 36.00 474.00
C 53.14 443.83 73.24 414.90 90.92 384.92 C 91.09 374.24 80.03 364.72 75.23 354.77 C 63.55 334.67 49.96 315.37 39.00 295.00
C 54.33 295.00 69.67 295.00 85.00 295.00 C 97.20 295.63 98.33 313.22 105.77 321.23 C 111.60 331.09 117.05 341.17 123.00 351.00 Z"/>
</g>
<g fill="None" fill-opacity="0.0" stroke="&stroke_color;" stroke-opacity="1.00" stroke-width="0.3"><path d="
M 486.00 260.00 
C 431.67 260.00 377.33 260.00 323.00 260.00 C 301.69 261.96 268.04 251.43 260.78 278.78 C 258.96 332.05 260.52 386.34 260.00 440.00 C 261.58 461.41 251.97 494.53 279.33 501.67 C 333.40 502.44 387.80 501.78 442.00 502.00 C 463.31 500.04 496.96 510.57 504.22 483.22 C 506.04 429.95 504.48 375.66 505.00 322.00 C 503.62 300.36 512.64 267.99 486.00 260.00
M 476.00 315.00 
C 476.00 331.33 476.00 347.67 476.00 364.00
C 413.67 364.00 351.33 364.00 289.00 364.00
C 289.00 347.67 289.00 331.33 289.00 315.00
C 351.33 315.00 413.67 315.00 476.00 315.00
M 476.00 398.00 
C 476.00 414.33 476.00 430.67 476.00 447.00
C 413.67 447.00 351.33 447.00 289.00 447.00
C 289.00 430.67 289.00 414.33 289.00 398.00
C 351.33 398.00 413.67 398.00 476.00 398.00 Z"/>
</g>
<g fill="None" fill-opacity="0.0" stroke="&fill_color;" stroke-opacity="1.00" stroke-width="0.3"><path d="
M 123.00 351.00 
C 117.05 341.17 111.60 331.09 105.77 321.23 C 98.33 313.22 97.20 295.63 85.00 295.00 C 69.67 295.00 54.33 295.00 39.00 295.00
C 49.96 315.37 63.55 334.67 75.23 354.77 C 80.03 364.72 91.09 374.24 90.92 384.92 C 73.24 414.90 53.14 443.83 36.00 474.00
C 52.66 473.98 69.32 474.04 85.97 473.97 C 100.91 456.51 109.97 431.95 124.00 413.00
C 134.24 433.74 147.93 453.17 158.00 474.00
C 175.67 474.00 193.33 474.00 211.00 474.00
C 192.73 444.05 173.55 414.65 155.26 384.74 C 155.16 374.35 167.04 364.62 171.25 354.25 C 183.56 334.56 196.77 315.15 208.00 295.00
C 192.33 295.00 176.67 295.00 161.00 295.00 C 149.62 296.98 147.99 313.61 140.77 321.77 C 134.69 331.39 129.92 342.17 123.00 351.00 Z"/>
</g>
<g fill="None" fill-opacity="0.0" stroke="&fill_color;" stroke-opacity="1.00" stroke-width="0.3"><path d="
M 476.00 315.00 
C 413.67 315.00 351.33 315.00 289.00 315.00
C 289.00 331.33 289.00 347.67 289.00 364.00
C 351.33 364.00 413.67 364.00 476.00 364.00
C 476.00 347.67 476.00 331.33 476.00 315.00 Z"/>
</g>
<g fill="None" fill-opacity="0.0" stroke="&fill_color;" stroke-opacity="1.00" stroke-width="0.3"><path d="
M 476.00 398.00 
C 413.67 398.00 351.33 398.00 289.00 398.00
C 289.00 414.33 289.00 430.67 289.00 447.00
C 351.33 447.00 413.67 447.00 476.00 447.00
C 476.00 430.67 476.00 414.33 476.00 398.00 Z"/>
</g>
<g fill="&stroke_color;" fill-opacity="0.00" stroke="None">
<path d="
M 0.00 512.00 
L 512.00 512.00
L 512.00 0.00
L 0.00 0.00
L 0.00 512.00
M 233.00 10.00 
C 259.64 17.99 250.62 50.36 252.00 72.00 C 251.48 125.66 253.04 179.95 251.22 233.22 C 243.96 260.57 210.31 250.04 189.00 252.00 C 134.80 251.78 80.40 252.44 26.33 251.67 C -1.03 244.53 8.58 211.41 7.00 190.00 C 7.52 136.34 5.96 82.05 7.78 28.78 C 15.04 1.43 48.69 11.96 70.00 10.00 C 124.33 10.00 178.67 10.00 233.00 10.00
M 486.00 10.00 
C 512.64 17.99 503.62 50.36 505.00 72.00 C 504.48 125.66 506.04 179.95 504.22 233.22 C 496.96 260.57 463.31 250.04 442.00 252.00 C 387.80 251.78 333.40 252.44 279.33 251.67 C 251.97 244.53 261.58 211.41 260.00 190.00 C 260.52 136.34 258.96 82.05 260.78 28.78 C 268.04 1.43 301.69 11.96 323.00 10.00 C 377.33 10.00 431.67 10.00 486.00 10.00
M 233.00 260.00 
C 259.64 267.99 250.62 300.36 252.00 322.00 C 251.48 375.66 253.04 429.95 251.22 483.22 C 243.96 510.57 210.31 500.04 189.00 502.00 C 134.80 501.78 80.40 502.44 26.33 501.67 C -1.03 494.53 8.58 461.41 7.00 440.00 C 7.52 386.34 5.96 332.05 7.78 278.78 C 15.04 251.43 48.69 261.96 70.00 260.00 C 124.33 260.00 178.67 260.00 233.00 260.00
M 486.00 260.00 
C 512.64 267.99 503.62 300.36 505.00 322.00 C 504.48 375.66 506.04 429.95 504.22 483.22 C 496.96 510.57 463.31 500.04 442.00 502.00 C 387.80 501.78 333.40 502.44 279.33 501.67 C 251.97 494.53 261.58 461.41 260.00 440.00 C 260.52 386.34 258.96 332.05 260.78 278.78 C 268.04 251.43 301.69 261.96 323.00 260.00 C 377.33 260.00 431.67 260.00 486.00 260.00 Z"/>
</g>
<g fill="&stroke_color;" fill-opacity="1.00" stroke="None">
<path d="
M 233.00 10.00 
C 178.67 10.00 124.33 10.00 70.00 10.00 C 48.69 11.96 15.04 1.43 7.78 28.78 C 5.96 82.05 7.52 136.34 7.00 190.00 C 8.58 211.41 -1.03 244.53 26.33 251.67 C 80.40 252.44 134.80 251.78 189.00 252.00 C 210.31 250.04 243.96 260.57 251.22 233.22 C 253.04 179.95 251.48 125.66 252.00 72.00 C 250.62 50.36 259.64 17.99 233.00 10.00
M 147.00 31.00 
C 147.00 57.00 147.00 83.00 147.00 109.00
C 171.33 109.00 195.67 109.00 220.00 109.00
C 220.00 123.67 220.00 138.33 220.00 153.00
C 195.67 153.00 171.33 153.00 147.00 153.00
C 147.00 166.33 147.00 179.67 147.00 193.00 C 145.64 205.27 149.74 220.48 144.92 230.92 C 131.61 231.11 118.30 230.95 105.00 231.00
C 105.00 205.00 105.00 179.00 105.00 153.00
C 80.67 153.00 56.33 153.00 32.00 153.00
C 32.00 138.33 32.00 123.67 32.00 109.00
C 56.33 109.00 80.67 109.00 105.00 109.00
C 105.00 83.00 105.00 57.00 105.00 31.00
C 119.00 31.00 133.00 31.00 147.00 31.00 Z"/>
</g>
<g fill="&stroke_color;" fill-opacity="1.00" stroke="None">
<path d="
M 486.00 10.00 
C 431.67 10.00 377.33 10.00 323.00 10.00 C 301.69 11.96 268.04 1.43 260.78 28.78 C 258.96 82.05 260.52 136.34 260.00 190.00 C 261.58 211.41 251.97 244.53 279.33 251.67 C 333.40 252.44 387.80 251.78 442.00 252.00 C 463.31 250.04 496.96 260.57 504.22 233.22 C 506.04 179.95 504.48 125.66 505.00 72.00 C 503.62 50.36 512.64 17.99 486.00 10.00
M 466.00 111.00 
C 466.00 127.33 466.00 143.67 466.00 160.00
C 417.00 160.00 368.00 160.00 319.00 160.00 C 308.69 158.94 288.92 165.39 294.00 148.00 C 294.00 135.67 294.00 123.33 294.00 111.00
C 351.33 111.00 408.67 111.00 466.00 111.00 Z"/>
</g>
<g fill="&fill_color;" fill-opacity="1.00" stroke="None">
<path d="
M 147.00 31.00 
C 133.00 31.00 119.00 31.00 105.00 31.00
C 105.00 57.00 105.00 83.00 105.00 109.00
C 80.67 109.00 56.33 109.00 32.00 109.00
C 32.00 123.67 32.00 138.33 32.00 153.00
C 56.33 153.00 80.67 153.00 105.00 153.00
C 105.00 179.00 105.00 205.00 105.00 231.00
C 118.30 230.95 131.61 231.11 144.92 230.92 C 149.74 220.48 145.64 205.27 147.00 193.00 C 147.00 179.67 147.00 166.33 147.00 153.00
C 171.33 153.00 195.67 153.00 220.00 153.00
C 220.00 138.33 220.00 123.67 220.00 109.00
C 195.67 109.00 171.33 109.00 147.00 109.00
C 147.00 83.00 147.00 57.00 147.00 31.00 Z"/>
</g>
<g fill="&fill_color;" fill-opacity="1.00" stroke="None">
<path d="
M 466.00 111.00 
C 408.67 111.00 351.33 111.00 294.00 111.00
C 294.00 123.33 294.00 135.67 294.00 148.00 C 288.92 165.39 308.69 158.94 319.00 160.00 C 368.00 160.00 417.00 160.00 466.00 160.00
C 466.00 143.67 466.00 127.33 466.00 111.00 Z"/>
</g>
<g fill="&stroke_color;" fill-opacity="1.00" stroke="None">
<path d="
M 233.00 260.00 
C 178.67 260.00 124.33 260.00 70.00 260.00 C 48.69 261.96 15.04 251.43 7.78 278.78 C 5.96 332.05 7.52 386.34 7.00 440.00 C 8.58 461.41 -1.03 494.53 26.33 501.67 C 80.40 502.44 134.80 501.78 189.00 502.00 C 210.31 500.04 243.96 510.57 251.22 483.22 C 253.04 429.95 251.48 375.66 252.00 322.00 C 250.62 300.36 259.64 267.99 233.00 260.00
M 123.00 351.00 
C 129.92 342.17 134.69 331.39 140.77 321.77 C 147.99 313.61 149.62 296.98 161.00 295.00 C 176.67 295.00 192.33 295.00 208.00 295.00
C 196.77 315.15 183.56 334.56 171.25 354.25 C 167.04 364.62 155.16 374.35 155.26 384.74 C 173.55 414.65 192.73 444.05 211.00 474.00
C 193.33 474.00 175.67 474.00 158.00 474.00
C 147.93 453.17 134.24 433.74 124.00 413.00
C 109.97 431.95 100.91 456.51 85.97 473.97 C 69.32 474.04 52.66 473.98 36.00 474.00
C 53.14 443.83 73.24 414.90 90.92 384.92 C 91.09 374.24 80.03 364.72 75.23 354.77 C 63.55 334.67 49.96 315.37 39.00 295.00
C 54.33 295.00 69.67 295.00 85.00 295.00 C 97.20 295.63 98.33 313.22 105.77 321.23 C 111.60 331.09 117.05 341.17 123.00 351.00 Z"/>
</g>
<g fill="&stroke_color;" fill-opacity="1.00" stroke="None">
<path d="
M 486.00 260.00 
C 431.67 260.00 377.33 260.00 323.00 260.00 C 301.69 261.96 268.04 251.43 260.78 278.78 C 258.96 332.05 260.52 386.34 260.00 440.00 C 261.58 461.41 251.97 494.53 279.33 501.67 C 333.40 502.44 387.80 501.78 442.00 502.00 C 463.31 500.04 496.96 510.57 504.22 483.22 C 506.04 429.95 504.48 375.66 505.00 322.00 C 503.62 300.36 512.64 267.99 486.00 260.00
M 476.00 315.00 
C 476.00 331.33 476.00 347.67 476.00 364.00
C 413.67 364.00 351.33 364.00 289.00 364.00
C 289.00 347.67 289.00 331.33 289.00 315.00
C 351.33 315.00 413.67 315.00 476.00 315.00
M 476.00 398.00 
C 476.00 414.33 476.00 430.67 476.00 447.00
C 413.67 447.00 351.33 447.00 289.00 447.00
C 289.00 430.67 289.00 414.33 289.00 398.00
C 351.33 398.00 413.67 398.00 476.00 398.00 Z"/>
</g>
<g fill="&fill_color;" fill-opacity="1.00" stroke="None">
<path d="
M 123.00 351.00 
C 117.05 341.17 111.60 331.09 105.77 321.23 C 98.33 313.22 97.20 295.63 85.00 295.00 C 69.67 295.00 54.33 295.00 39.00 295.00
C 49.96 315.37 63.55 334.67 75.23 354.77 C 80.03 364.72 91.09 374.24 90.92 384.92 C 73.24 414.90 53.14 443.83 36.00 474.00
C 52.66 473.98 69.32 474.04 85.97 473.97 C 100.91 456.51 109.97 431.95 124.00 413.00
C 134.24 433.74 147.93 453.17 158.00 474.00
C 175.67 474.00 193.33 474.00 211.00 474.00
C 192.73 444.05 173.55 414.65 155.26 384.74 C 155.16 374.35 167.04 364.62 171.25 354.25 C 183.56 334.56 196.77 315.15 208.00 295.00
C 192.33 295.00 176.67 295.00 161.00 295.00 C 149.62 296.98 147.99 313.61 140.77 321.77 C 134.69 331.39 129.92 342.17 123.00 351.00 Z"/>
</g>
<g fill="&fill_color;" fill-opacity="1.00" stroke="None">
<path d="
M 476.00 315.00 
C 413.67 315.00 351.33 315.00 289.00 315.00
C 289.00 331.33 289.00 347.67 289.00 364.00
C 351.33 364.00 413.67 364.00 476.00 364.00
C 476.00 347.67 476.00 331.33 476.00 315.00 Z"/>
</g>
<g fill="&fill_color;" fill-opacity="1.00" stroke="None">
<path d="
M 476.00 398.00 
C 413.67 398.00 351.33 398.00 289.00 398.00
C 289.00 414.33 289.00 430.67 289.00 447.00
C 351.33 447.00 413.67 447.00 476.00 447.00
C 476.00 430.67 476.00 414.33 476.00 398.00 Z"/>
</g>
</svg>