<?xml version="1.0" encoding="UTF-8"?>
<!DOCTYPE svg PUBLIC "-//W3C//DTD SVG 1.1//EN" "http://www.w3.org/Graphics/SVG/1.1/DTD/svg11.dtd" [
  <!ENTITY fill_color "#FFFFFF">
  <!ENTITY stroke_color "#000000">
]>

<svg
   version="1.0"
   width="500.000000pt"
   height="500.000000pt"
   viewBox="0 0 500.000000 500.000000"
   preserveAspectRatio="xMidYMid meet"
   id="svg4"
   sodipodi:docname="icon.svg"
   inkscape:version="1.3.2 (091e20e, 2023-11-25, custom)"
   xmlns:inkscape="http://www.inkscape.org/namespaces/inkscape"
   xmlns:sodipodi="http://sodipodi.sourceforge.net/DTD/sodipodi-0.dtd"
   xmlns="http://www.w3.org/2000/svg"
   xmlns:svg="http://www.w3.org/2000/svg"
   >
  <defs
     id="defs4" />
  <sodipodi:namedview
     id="namedview4"
     pagecolor="#ffffff"
     bordercolor="#000000"
     borderopacity="0.25"
     inkscape:showpageshadow="2"
     inkscape:pageopacity="0.0"
     inkscape:pagecheckerboard="0"
     inkscape:deskcolor="#d1d1d1"
     inkscape:document-units="pt"
     showgrid="false"
     inkscape:zoom="1.6335"
     inkscape:cx="333.02724"
     inkscape:cy="333.33333"
     inkscape:window-width="2240"
     inkscape:window-height="1366"
     inkscape:window-x="-11"
     inkscape:window-y="-11"
     inkscape:window-maximized="1"
     inkscape:current-layer="g4" />
  <g
     transform="translate(0.000000,500.000000) scale(0.100000,-0.100000)"
     style="fill:&fill_color;;stroke:&stroke_color;;stroke-width:1"
     id="g4">
    <path
       d="M410 4971 c-101 -26 -159 -60 -238 -137 -80 -80 -122 -156 -141 -259 -7 -39 -11 -314 -11 -829 0 -652 3 -781 15 -835 45 -188 196 -337 382 -376 100 -21 1566 -21 1666 0 188 40 342 194 382 382 12 56 15 207 15 834 0 511 -4 785 -11 824 -19 103 -61 179 -141 259 -81 79 -147 116 -252 140 -58 14 -171 16 -834 15 -687 -1 -774 -3 -832 -18z m870 -966 l5 -180 174 -2 c95 -1 178 -6 183 -11 5 -5 8 -47 6 -93 l-3 -84 -182 -3 -183 -2 -2 -183 -3 -182 -95 0 -95 0 -3 183 -2 182 -181 0 -180 0 3 96 3 95 175 2 175 2 3 170 c1 94 4 176 7 183 3 9 29 12 97 10 l93 -3 5 -180z"
       id="path1" />
    <path
       d="M2910 4971 c-101 -26 -159 -60 -238 -137 -80 -80 -122 -156 -141 -259 -7 -39 -11 -314 -11 -829 0 -652 3 -781 15 -835 45 -188 196 -337 382 -376 100 -21 1566 -21 1666 0 188 40 342 194 382 382 12 56 15 207 15 834 0 511 -4 785 -11 824 -19 103 -61 179 -141 259 -81 79 -147 116 -252 140 -58 14 -171 16 -834 15 -687 -1 -774 -3 -832 -18z m1355 -1243 l0 -93 -460 0 -460 0 -3 84 c-2 46 -1 89 1 95 3 8 141 10 463 9 l459 -2 0 -93z"
       id="path2" />
    <path
       d="M410 2461 c-101 -26 -159 -60 -238 -137 -80 -80 -122 -156 -141 -259 -7 -39 -11 -314 -11 -829 0 -652 3 -781 15 -835 45 -188 196 -337 382 -376 100 -21 1566 -21 1666 0 188 40 342 194 382 382 12 56 15 207 15 834 0 511 -4 785 -11 824 -19 103 -61 179 -141 259 -81 79 -147 116 -252 140 -58 14 -171 16 -834 15 -687 -1 -774 -3 -832 -18z m640 -996 l125 -125 127 127 128 128 70 -70 70 -70 -127 -127 -128 -128 130 -130 130 -130 -65 -65 c-35 -36 -71 -65 -80 -65 -8 0 -70 55 -138 123 l-122 122 -122 -122 c-67 -68 -126 -123 -132 -123 -7 0 -41 29 -76 65 l-65 65 128 128 127 127 -127 127 -128 128 70 70 c38 38 72 70 75 70 3 0 61 -56 130 -125z"
       id="path3" />
    <path
       d="M2910 2461 c-101 -26 -159 -60 -238 -137 -80 -80 -122 -156 -141 -259 -7 -39 -11 -314 -11 -829 0 -652 3 -781 15 -835 45 -188 196 -337 382 -376 100 -21 1566 -21 1666 0 188 40 342 194 382 382 12 56 15 207 15 834 0 511 -4 785 -11 824 -19 103 -61 179 -141 259 -81 79 -147 116 -252 140 -58 14 -171 16 -834 15 -687 -1 -774 -3 -832 -18z m1370 -1051 l0 -110 -462 2 -463 3 -3 94 c-1 52 -1 100 2 108 4 10 93 13 466 13 l460 0 0 -110z m0 -420 l0 -100 -465 0 -465 0 0 100 0 100 465 0 465 0 0 -100z"
       id="path4" />
  </g>
</svg>
